<svg width="16" height="16" viewBox="0 0 16 16" fill="none" xmlns="http://www.w3.org/2000/svg">
<path d="M5.71429 4.57153H13.1429M5.71429 8.0001H13.1429M5.71429 11.4287H13.1429" stroke="#787878" stroke-linecap="round" stroke-linejoin="round"/>
<path d="M2.92856 4.57143C2.92856 4.61088 2.89658 4.64286 2.85713 4.64286C2.81769 4.64286 2.78571 4.61088 2.78571 4.57143C2.78571 4.53198 2.81769 4.5 2.85713 4.5C2.89658 4.5 2.92856 4.53198 2.92856 4.57143ZM2.92856 8C2.92856 8.03945 2.89658 8.07143 2.85713 8.07143C2.81769 8.07143 2.78571 8.03945 2.78571 8C2.78571 7.96055 2.81769 7.92857 2.85713 7.92857C2.89658 7.92857 2.92856 7.96055 2.92856 8ZM2.92856 11.4286C2.92856 11.468 2.89658 11.5 2.85713 11.5C2.81768 11.5 2.78571 11.468 2.78571 11.4286C2.78571 11.3891 2.81768 11.3571 2.85713 11.3571C2.89658 11.3571 2.92856 11.3891 2.92856 11.4286Z" stroke="#262638"/>
</svg>
