<svg width="24" height="24" viewBox="0 0 24 24" fill="none" xmlns="http://www.w3.org/2000/svg">
<mask id="mask0_103_340" style="mask-type:alpha" maskUnits="userSpaceOnUse" x="4" y="4" width="16" height="16">
<path d="M11.005 18.791V7.62102L6.12498 12.501C5.73498 12.891 5.09498 12.891 4.70498 12.501C4.31498 12.111 4.31498 11.481 4.70498 11.091L11.295 4.50102C11.685 4.11102 12.315 4.11102 12.705 4.50102L19.295 11.091C19.685 11.481 19.685 12.111 19.295 12.501C19.1081 12.6883 18.8545 12.7935 18.59 12.7935C18.3255 12.7935 18.0718 12.6883 17.885 12.501L13.005 7.62102V18.791C13.005 19.341 12.555 19.791 12.005 19.791C11.455 19.791 11.005 19.341 11.005 18.791Z" fill="black"/>
</mask>
<g mask="url(#mask0_103_340)">
<rect width="24" height="24" transform="matrix(1 0 0 -1 0 24)" fill="#F11818"/>
</g>
</svg>
