<svg width="16" height="16" viewBox="0 0 16 16" fill="none" xmlns="http://www.w3.org/2000/svg">
<path d="M3.33331 3H2.99998V3.33333V5.66667H2.33331V2.66667C2.33331 2.57826 2.36843 2.49348 2.43094 2.43096C2.49346 2.36845 2.57824 2.33333 2.66665 2.33333H5.66665V3H3.33331ZM13 3.33333V3H12.6666H10.3333V2.33333H13.3333C13.4217 2.33333 13.5065 2.36845 13.569 2.43096L13.8047 2.19526L13.569 2.43096C13.6315 2.49348 13.6666 2.57826 13.6666 2.66667V5.66667H13V3.33333ZM12.6666 13H13V12.6667V10.3333H13.6666V13.3333C13.6666 13.4217 13.6315 13.5065 13.569 13.569C13.5065 13.6315 13.4217 13.6667 13.3333 13.6667H10.3333V13H12.6666ZM2.99998 12.6667V13H3.33331H5.66665V13.6667H2.66665C2.57824 13.6667 2.49346 13.6315 2.43094 13.569C2.36843 13.5065 2.33331 13.4217 2.33331 13.3333V10.3333H2.99998V12.6667ZM1.66665 7.66667H14.3333V8.33333H1.66665V7.66667Z" fill="#3FC2A3" stroke="#3FC2A3" stroke-width="0.666667"/>
</svg>
