<svg width="24" height="24" viewBox="0 0 24 24" fill="none" xmlns="http://www.w3.org/2000/svg">
<path d="M5.07411 6.2341L5.0741 6.23419C4.74034 8.55816 5.4793 11.3426 7.37379 14.6239C9.26346 17.8968 11.3008 19.9271 13.4757 20.8038L5.07411 6.2341ZM5.07411 6.2341C5.1742 5.53632 5.47154 4.88165 5.93113 4.34714C6.39069 3.81268 6.99335 3.4206 7.6682 3.21706C7.66825 3.21705 7.66829 3.21703 7.66834 3.21702L8.45806 2.97911H8.45913L8.52957 2.95793C8.97112 2.82515 9.4459 2.85747 9.86539 3.04886C10.2849 3.24025 10.6205 3.57766 10.8096 3.99818L10.8096 3.99831L11.6039 5.76326L5.07411 6.2341ZM10.4961 3.78511L10.6286 4.08043L11.4202 5.84489C11.4203 5.84502 11.4203 5.84514 11.4204 5.84527C11.6174 6.28272 11.6725 6.7709 11.5779 7.24125C11.4832 7.71175 11.2436 8.14077 10.8925 8.46803L10.8923 8.46824L9.63888 9.63539C9.38877 9.87325 9.27291 10.2055 9.35623 10.7431C9.44321 11.3044 9.7429 12.0323 10.2729 12.9498L10.273 12.95C10.7705 13.812 11.2228 14.4126 11.6433 14.7767C12.0488 15.1278 12.384 15.2267 12.6901 15.1842L12.8019 15.1607L15.2852 14.4032C15.2854 14.4031 15.2856 14.403 15.2858 14.403L15.2861 14.4029L15.432 14.8811C15.5517 14.8443 15.68 14.8459 15.7988 14.8858L10.4961 3.78511ZM10.4961 3.78511H10.4573M10.4961 3.78511H10.4573M7.54818 14.5239C9.3666 17.673 11.3645 19.7365 13.5519 20.6177C14.1734 20.8682 14.8538 20.935 15.5122 20.8102C16.1706 20.6853 16.7793 20.3741 17.2661 19.9135L17.2661 19.9134L17.9177 19.2966L17.574 18.9335L17.9177 19.2966C18.217 19.0133 18.4031 18.631 18.4416 18.2207C18.48 17.8106 18.3683 17.4005 18.1271 17.0666L5.27223 6.2626C4.93602 8.6012 5.72505 11.3678 7.54818 14.5239ZM7.54818 14.5239L7.98118 14.2739L7.54818 14.5239ZM10.4573 3.78511C10.2857 3.54617 10.0538 3.35418 9.78269 3.23036C9.40735 3.05896 8.98247 3.02992 8.58729 3.14866L8.58695 3.14877L7.72655 3.40797L7.72643 3.408C7.08789 3.60054 6.51765 3.97152 6.08286 4.47724C5.64812 4.98291 5.36689 5.60224 5.27227 6.26234L10.4573 3.78511ZM18.0531 19.4419L17.403 20.0585L11.604 5.76351C11.8176 6.23894 11.877 6.7693 11.7739 7.28021C11.6708 7.79121 11.4104 8.25712 11.029 8.61257L11.0289 8.6127L9.77731 9.7803L9.77729 9.78028L9.77365 9.78375C9.57757 9.97039 9.53218 10.2225 9.52778 10.4089C9.52311 10.6071 9.56154 10.8278 9.62689 11.0589C9.75846 11.5243 10.0262 12.1245 10.4449 12.8499L10.878 12.5999L10.4449 12.8499C10.8461 13.5448 11.219 14.0633 11.5409 14.4106C11.7009 14.5831 11.8607 14.727 12.0171 14.8282C12.1545 14.9171 12.3752 15.0299 12.6278 14.9931L12.6381 14.9916L12.6483 14.9896L12.7119 14.9776L12.739 14.9725L12.7654 14.9645L15.2266 14.2121L15.2267 14.212C15.4862 14.1326 15.764 14.1364 16.0212 14.2228C16.2784 14.3092 16.5021 14.4739 16.661 14.6938C16.661 14.6938 16.661 14.6939 16.6611 14.6939L18.2881 16.9496L18.2881 16.9497C18.5575 17.323 18.6822 17.7814 18.6391 18.2397C18.5959 18.6981 18.3878 19.1251 18.0535 19.4416L18.0531 19.4419Z" fill="#008069" stroke="#008069"/>
</svg>
