<svg width="12" height="14" viewBox="0 0 12 14" fill="none" xmlns="http://www.w3.org/2000/svg">
<path id="Vector" d="M5.99984 13.6666C5.64622 13.6666 5.30708 13.5261 5.05703 13.2761C4.80698 13.026 4.6665 12.6869 4.6665 12.3333H7.33317C7.33317 12.6869 7.19269 13.026 6.94265 13.2761C6.6926 13.5261 6.35346 13.6666 5.99984 13.6666ZM11.3332 11.6666H0.666504V10.3333L1.99984 9.66659V5.99992C1.99984 3.69192 2.94717 2.19525 4.6665 1.78659V0.333252H6.6665C6.2318 0.90921 5.99765 1.61167 5.99984 2.33325C5.99984 2.50059 6.0125 2.66792 6.03717 2.83392H5.99984C5.59951 2.80799 5.19908 2.88282 4.83514 3.05158C4.47119 3.22033 4.15536 3.47762 3.9165 3.79992C3.50153 4.45629 3.29793 5.22417 3.33317 5.99992V10.3333H8.6665V5.99992C8.6665 5.85925 8.66184 5.72392 8.6525 5.59992C9.09347 5.691 9.54824 5.69258 9.98984 5.60459C9.99717 5.74525 9.99984 5.87925 9.99984 6.00459V9.66659L11.3332 10.3333V11.6666ZM9.33317 4.33325C8.80274 4.33325 8.29403 4.12254 7.91896 3.74747C7.54388 3.37239 7.33317 2.86368 7.33317 2.33325C7.33317 1.80282 7.54388 1.29411 7.91896 0.919038C8.29403 0.543966 8.80274 0.333252 9.33317 0.333252C9.8636 0.333252 10.3723 0.543966 10.7474 0.919038C11.1225 1.29411 11.3332 1.80282 11.3332 2.33325C11.3332 2.86368 11.1225 3.37239 10.7474 3.74747C10.3723 4.12254 9.8636 4.33325 9.33317 4.33325Z" fill="#263238"/>
</svg>
